<svg xmlns="http://www.w3.org/2000/svg" width="205.537" height="56.899" viewBox="0 0 205.537 56.899"><g transform="translate(-9.317 -6.71)"><path d="M73.544,41.747h-.179a5.857,5.857,0,0,1-2.558,3.645,9.681,9.681,0,0,1-5.614,1.471,12.265,12.265,0,0,1-5-1.023,10.947,10.947,0,0,1-3.99-3.018,14.068,14.068,0,0,1-2.558-4.911,22.726,22.726,0,0,1-.934-6.778,21.741,21.741,0,0,1,.959-6.74,14.2,14.2,0,0,1,2.7-4.937,11.152,11.152,0,0,1,4.182-3.031A14.068,14.068,0,0,1,66,15.4a12.648,12.648,0,0,1,6.932,1.8,12.1,12.1,0,0,1,4.4,5.013l-4,2.353a7.929,7.929,0,0,0-2.711-3.479A7.558,7.558,0,0,0,66,19.814a7.673,7.673,0,0,0-5.883,2.238,9.208,9.208,0,0,0-2.2,6.561V33.6a9.208,9.208,0,0,0,2.2,6.561,7.673,7.673,0,0,0,5.819,2.315,10.231,10.231,0,0,0,2.75-.371,7.175,7.175,0,0,0,2.3-1.1,5.256,5.256,0,0,0,1.547-1.816,5.116,5.116,0,0,0,.588-2.558v-2.3H66.855V30.1H77.88V46.313H73.544Z" transform="translate(12.102 2.422)" fill="#e21652"></path><path d="M78.233,19.927a2.89,2.89,0,0,1-2.085-.691,2.417,2.417,0,0,1-.678-1.79V16.7a2.4,2.4,0,0,1,.678-1.778,2.839,2.839,0,0,1,2.149-.7,2.775,2.775,0,0,1,2.136.7,2.558,2.558,0,0,1,.652,1.778v.742a2.558,2.558,0,0,1-.652,1.79A2.814,2.814,0,0,1,78.233,19.927Zm-2.392,4.054h4.745V46.643H75.841Z" transform="translate(18.45 2.092)" fill="#e21652"></path><path d="M84.75,27.818H81.31V23.981h3.44V20.2A6.037,6.037,0,0,1,86.2,15.911a5.589,5.589,0,0,1,4.31-1.547h3.747V18.2H89.508v5.7h4.745v3.837H89.508V46.6H84.75Z" transform="translate(20.079 2.13)" fill="#e21652"></path><path d="M99.733,45.865a5.116,5.116,0,0,1-3.747-1.279,4.962,4.962,0,0,1-1.279-3.632V27.078H91.19V23.241h1.918a2.059,2.059,0,0,0,1.675-.563,2.558,2.558,0,0,0,.46-1.7V17h4.272v6.19h4.745v3.837H99.477V41.99h4.4v3.837Z" transform="translate(22.835 2.87)" fill="#e21652"></path><path d="M104,46.206V15.793h13.07a8.517,8.517,0,0,1,6.535,2.481,9.4,9.4,0,0,1,2.3,6.663,9.4,9.4,0,0,1-2.3,6.663,8.479,8.479,0,0,1-6.535,2.558h-8.147V46.27Zm4.924-16.472h7.865a4.08,4.08,0,0,0,2.916-.972,3.594,3.594,0,0,0,1.049-2.788V23.9a3.619,3.619,0,0,0-1.049-2.788,4.131,4.131,0,0,0-2.916-.972h-7.84Z" transform="translate(26.408 2.529)" fill="#878787"></path><path d="M131.9,45.163a10.96,10.96,0,0,1-4.361-.831,8.953,8.953,0,0,1-3.261-2.379,10.526,10.526,0,0,1-2.123-3.773,17.112,17.112,0,0,1,0-9.8,10.525,10.525,0,0,1,2.123-3.683,8.953,8.953,0,0,1,3.261-2.379,10.96,10.96,0,0,1,4.361-.831,10.487,10.487,0,0,1,4.387.87,8.876,8.876,0,0,1,3.159,2.43,10.6,10.6,0,0,1,1.893,3.53,14.745,14.745,0,0,1,.627,4.4V34.5H126.415v.742a6,6,0,0,0,1.547,4.259,5.73,5.73,0,0,0,4.425,1.675,6.522,6.522,0,0,0,3.53-.908,8.146,8.146,0,0,0,2.43-2.468l2.788,2.75a8.952,8.952,0,0,1-3.632,3.338A11.907,11.907,0,0,1,131.9,45.163Zm0-20a5.589,5.589,0,0,0-2.238.435,5.013,5.013,0,0,0-1.752,1.215,5.487,5.487,0,0,0-1.1,1.88,6.854,6.854,0,0,0-.4,2.392v.307h10.538v-.435a6.318,6.318,0,0,0-1.279-4.208,4.6,4.6,0,0,0-3.773-1.611Z" transform="translate(31.272 4.122)" fill="#878787"></path><path d="M147.544,45.173a11.587,11.587,0,0,1-5.4-1.138A11.868,11.868,0,0,1,138.31,40.9l3.057-2.788a9.745,9.745,0,0,0,2.814,2.366,7.213,7.213,0,0,0,3.594.857,4.962,4.962,0,0,0,3.108-.806,2.724,2.724,0,0,0,1.023-2.251,2.558,2.558,0,0,0-.716-1.842,4.016,4.016,0,0,0-2.558-.985l-2.085-.269a10.615,10.615,0,0,1-5.474-2.021,5.717,5.717,0,0,1-1.982-4.732,6.766,6.766,0,0,1,.614-2.941,6.164,6.164,0,0,1,1.714-2.174,8.044,8.044,0,0,1,2.66-1.368,11.51,11.51,0,0,1,3.427-.486,11.254,11.254,0,0,1,4.988.959,11.51,11.51,0,0,1,3.453,2.66l-2.916,2.788a7.673,7.673,0,0,0-2.2-1.88,6.65,6.65,0,0,0-3.236-.767,4.527,4.527,0,0,0-2.9.78,2.558,2.558,0,0,0-.934,2.059,2.34,2.34,0,0,0,.818,1.957,6.049,6.049,0,0,0,2.66.959l2.1.256a10.027,10.027,0,0,1,5.461,2.2,5.755,5.755,0,0,1,1.727,4.387,7.021,7.021,0,0,1-.627,2.98,6.676,6.676,0,0,1-1.816,2.289,8.364,8.364,0,0,1-2.826,1.484A12.431,12.431,0,0,1,147.544,45.173Z" transform="translate(35.977 4.112)" fill="#878787"></path><path d="M172,44.64a3.734,3.734,0,0,1-2.878-1.074,4.719,4.719,0,0,1-1.279-2.724h-.217a5.487,5.487,0,0,1-2.392,3.223,7.814,7.814,0,0,1-4.233,1.1,7.52,7.52,0,0,1-5.423-1.829,6.586,6.586,0,0,1-1.893-4.924,5.768,5.768,0,0,1,2.468-5.116,12.61,12.61,0,0,1,7.2-1.7h4.105V29.676a4.361,4.361,0,0,0-1.138-3.223,4.822,4.822,0,0,0-3.53-1.125,5.55,5.55,0,0,0-3.261.87,7.674,7.674,0,0,0-2.136,2.213l-2.839-2.558a9.08,9.08,0,0,1,3.184-3.159,10.321,10.321,0,0,1,5.359-1.279,10.052,10.052,0,0,1,6.753,2.046,7.379,7.379,0,0,1,2.353,5.883V40.726h2.392v3.837ZM162.4,41.545a6.4,6.4,0,0,0,3.658-.985,3.044,3.044,0,0,0,1.445-2.635V34.664h-4.016c-3.274,0-4.924,1.01-4.924,3.044v.78a2.66,2.66,0,0,0,1.023,2.289,4.617,4.617,0,0,0,2.839.767Z" transform="translate(40.261 4.095)" fill="#878787"></path><rect width="1.279" height="56.899" transform="translate(52.727 6.71)" fill="#b2b2b2"></rect><path d="M41.409,38.745V49.718A4.335,4.335,0,0,1,36.434,54c-2.225-.294-4.463-.473-6.689-.7l-6.625-.7-6.535-.678c-1.279-.128-2.456-.217-3.683-.409a4.208,4.208,0,0,1-3.568-4.527c.09-1.2.256-2.392.4-3.581.269-2.225.55-4.451.806-6.663.307-2.558.6-4.975.9-7.469l.806-6.714c.192-1.522.333-3.057.563-4.566a4.3,4.3,0,0,1,4.348-3.658H38.991a2.3,2.3,0,1,1,0,4.6H19.028A1.778,1.778,0,0,0,17.007,20.8c-.281,2.494-.6,4.975-.9,7.456-.269,2.213-.524,4.412-.793,6.625s-.524,4.412-.793,6.612c-.153,1.279-.333,2.558-.46,3.837a1.65,1.65,0,0,0,1.471,1.829c2.276.256,4.566.5,6.842.729l6.791.716c1.893.2,3.837.4,5.678.563a1.675,1.675,0,0,0,2.008-1.611,3.608,3.608,0,0,0,0-.524q0-8.454,0-16.907a4.72,4.72,0,0,0,0-.742,1.65,1.65,0,0,0-1.688-1.407c-2.826,0-5.653.077-8.479.166a1.65,1.65,0,0,0-1.663,1.816c0,1.177,0,2.366-.064,3.543,0,1.8,0,3.607-.1,5.41,0,.4.09.55.524.563a19.538,19.538,0,0,1,2.11.166c.422,0,.6,0,.588-.512v-4.3a2.187,2.187,0,0,1,1.957-2.2,2.238,2.238,0,0,1,2.558,1.7,2.763,2.763,0,0,1,.064.729v4.719a4.348,4.348,0,0,1-4.949,4.438c-1.279-.166-2.647-.128-3.952-.358a4.284,4.284,0,0,1-3.466-4.578c.09-1.637,0-3.287.09-4.924,0-2.34.064-4.694.2-7.034a4.054,4.054,0,0,1,3.67-3.67c1.42-.115,2.852-.09,4.284-.115,2.826-.064,5.653-.115,8.466-.192a4.348,4.348,0,0,1,4.425,4.208Z" transform="translate(0 2.125)" fill="#e21652"></path><path d="M25.66,14.2l-.384-2.392a2.091,2.091,0,0,0-.064-.627.563.563,0,0,1,.665-.639.6.6,0,0,1,.55.793c-.179.806-.384,1.611-.563,2.417a.473.473,0,0,0,0,.409c.563-1.023,1.113-2.072,1.688-3.095a2.967,2.967,0,1,1,2.737,4.4H19.367a3.876,3.876,0,1,1,3.709-5.627c.7,1.279,1.394,2.558,2.085,3.837.1.179.2.358.32.537Zm-1.138.256c-.9-1.611-1.663-3.159-2.558-4.6a2.7,2.7,0,0,0-3.351-.908,2.941,2.941,0,0,0-1.765,2.878,2.826,2.826,0,0,0,2.4,2.647h5.269Zm2.353,0h3.364a1.944,1.944,0,0,0,1.867-1.509A1.97,1.97,0,0,0,31.031,10.7a1.854,1.854,0,0,0-2.366.588c-.639,1-1.1,2.046-1.79,3.184Z" transform="translate(1.809 0.282)" fill="#e21652"></path></g></svg>